<svg version="1.2" xmlns="http://www.w3.org/2000/svg" viewBox="0 0 168 204" width="74" height="74">
	<title>indore-svg</title>
	<defs>
		<clipPath clipPathUnits="userSpaceOnUse" id="cp1">
			<path d="m2 3h163.52v200h-163.52z"/>
		</clipPath>
	</defs>
	<style>
		.s0 { fill: #f8d3c8 } 
		.s1 { fill: #ee9178 } 
		.s2 { fill: #fff9f3 } 
	</style>
	<g id="Clip-Path" clip-path="url(#cp1)">
		<g id="Layer">
			<path id="Layer" class="s0" d="m165.5 34.3h-19.9v23.2h19.9z"/>
			<path id="Layer" class="s1" d="m165.5 60.1h-49.1v20.1h49.1z"/>
			<path id="Layer" class="s0" d="m113.6 34.3h-29.3v-30.5c0-0.5-0.3-0.8-0.7-0.8-0.5 0-0.8 0.3-0.8 0.8v30.5h-29.3v23.2h60.1z"/>
			<path id="Layer" class="s0" d="m98.4 20.1c0 0-1.3-12.7-12.3-15.6v10.9c0 0 9.8-0.2 12.3 4.7z"/>
			<path id="Layer" class="s1" d="m165.5 107.6h-49.1v22.1h49.1z"/>
			<path id="Layer" class="s1" d="m51.3 107.6h-49.2v22.1h49.2z"/>
			<path id="Layer" class="s0" d="m22.1 34.3h-20v23.2h20z"/>
			<path id="Layer" class="s0" d="m113.6 60.1h-60.1v20.1h60.1z"/>
			<path id="Layer" class="s0" d="m139.6 82.8h-23.2v22.2h23.2z"/>
			<path id="Layer" class="s0" d="m165.5 82.8h-23.2v22.2h23.2z"/>
			<path id="Layer" class="s0" d="m139.6 132.6h-23.2v22.1h23.2z"/>
			<path id="Layer" class="s0" d="m165.5 132.6h-23.2v22.1h23.2z"/>
			<path id="Layer" class="s0" d="m25.3 132.3h-23.2v22.1h23.2z"/>
			<path id="Layer" class="s0" d="m51.3 132.3h-23.2v22.1h23.2z"/>
			<path id="Layer" class="s0" d="m25.2 83.3h-23.2v22.1h23.2z"/>
			<path id="Layer" class="s0" d="m51.3 82.8h-23.2v22.2h23.2z"/>
			<path id="Layer" class="s1" d="m113.6 82.8h-60.1v22.2h60.1z"/>
			<path id="Layer" class="s1" d="m165.5 157.7h-23.2v45.3h23.2z"/>
			<path id="Layer" class="s1" d="m139.6 157.7h-23.2v45.3h23.2z"/>
			<path id="Layer" class="s0" d="m113.6 107.6h-60.1v95.4h60.1z"/>
			<path id="Layer" class="s1" d="m51.3 157h-23.2v46h23.2z"/>
			<path id="Layer" class="s1" d="m25.3 157h-23.2v46h23.2z"/>
			<path id="Layer" class="s1" d="m51.3 60.1h-49.2v20.1h49.2z"/>
			<path id="Layer" class="s2" d="m9.5 112.8q0.3-0.1 0.7-0.2c1.3 0 1.7 0.3 2.2 0.7q0 0 0.1 0.1 0 0 0 0c0 0 0.1 0.1 0.1 0.1q0 0 0 0 0 0.1 0.1 0.1 0 0 0 0 0 0.1 0.1 0.1 0 0 0 0 0 0.1 0.1 0.1 0 0 0 0.1 0 0 0 0 0.1 0 0.1 0.1 0 0 0 0 0 0.1 0.1 0.1 0 0 0 0.1 0 0 0.1 0.1 0 0 0 0.1 0 0 0 0 0 0 0.1 0.1 0 0 0 0.1 0 0 0 0.1 0 0 0 0 0 0 0.1 0.1 0 0 0 0.1 0 0 0 0 0 0.2 0 0.3 0 0 0 0.1 0.1 0.1 0.1 0.2v9.3q0 0.1 0 0.1h-6.1q0 0 0-0.1v-9.3q0-0.7 0.4-1.3 0 0 0 0 0-0.1 0.1-0.1 0-0.1 0.1-0.2 0 0 0 0 0 0 0-0.1 0.1 0 0.1-0.1 0 0 0 0 0.1 0 0.1-0.1 0 0 0 0 0.1-0.1 0.1-0.1 0.1-0.1 0.2-0.2 0 0 0 0 0.1 0 0.1-0.1 0.1 0 0.2-0.1 0 0 0.1 0 0-0.1 0-0.1 0.1 0 0.1 0 0.1 0 0.1-0.1 0.1 0 0.1 0 0 0 0 0 0.1 0 0.1 0 0 0 0-0.1 0.1 0 0.1 0 0.1 0 0.1 0 0 0 0 0z"/>
			<path id="Layer" class="s2" d="m25.8 112.8q0.3-0.1 0.7-0.2c1.2 0 1.6 0.3 2.1 0.7q0.1 0 0.1 0.1 0 0 0.1 0c0 0 0 0.1 0 0.1q0 0 0.1 0 0 0.1 0 0.1 0 0 0.1 0 0 0.1 0 0.1 0 0 0.1 0 0 0.1 0 0.1 0 0 0.1 0.1 0 0 0 0 0 0 0 0.1 0.1 0 0.1 0 0 0.1 0 0.1 0 0 0 0.1 0.1 0 0.1 0.1 0 0 0 0.1 0.1 0 0.1 0 0 0 0 0.1 0 0 0.1 0.1 0 0 0 0.1 0 0 0 0 0 0 0 0.1 0 0 0 0.1 0 0 0 0 0.1 0.2 0.1 0.3 0 0 0 0.1 0 0.1 0 0.2v9.3q0 0.1 0 0.1h-6q0 0 0-0.1v-9.3q0-0.7 0.3-1.3 0 0 0.1 0 0-0.1 0-0.1 0.1-0.1 0.1-0.2 0 0 0 0 0.1 0 0.1-0.1 0 0 0.1-0.1 0 0 0 0 0 0 0-0.1 0.1 0 0.1 0 0-0.1 0.1-0.1 0.1-0.1 0.2-0.2 0 0 0 0 0 0 0.1-0.1 0.1 0 0.2-0.1 0 0 0 0 0.1-0.1 0.1-0.1 0 0 0.1 0 0 0 0.1-0.1 0 0 0.1 0 0 0 0 0 0 0 0.1 0 0 0 0-0.1 0.1 0 0.1 0 0 0 0 0 0.1 0 0.1 0z"/>
			<path id="Layer" class="s2" d="m42 112.8q0.4-0.1 0.7-0.2c1.3 0 1.7 0.3 2.2 0.7q0 0 0.1 0.1 0 0 0 0c0 0 0.1 0.1 0.1 0.1q0 0 0 0 0.1 0.1 0.1 0.1 0 0 0 0 0 0.1 0.1 0.1 0 0 0 0 0 0.1 0.1 0.1 0 0 0 0.1 0 0 0 0 0.1 0 0.1 0.1 0 0 0 0 0 0.1 0.1 0.1 0 0 0 0.1 0 0 0.1 0.1 0 0 0 0.1 0 0 0 0 0 0 0.1 0.1 0 0 0 0.1 0 0 0 0.1 0 0 0 0 0.1 0 0.1 0.1 0 0 0 0.1 0 0 0 0 0 0.2 0 0.3 0.1 0 0.1 0.1 0 0.1 0 0.2v9.3q0 0.1 0 0.1h-6.1q0 0 0-0.1v-9.3q0.1-0.7 0.4-1.3 0 0 0 0 0-0.1 0.1-0.1 0-0.1 0.1-0.2 0 0 0 0 0 0 0-0.1 0.1 0 0.1-0.1 0 0 0.1 0 0 0 0-0.1 0 0 0 0 0.1-0.1 0.1-0.1 0.1-0.1 0.2-0.2 0 0 0 0 0.1 0 0.2-0.1 0 0 0.1-0.1 0.1 0 0.1 0 0-0.1 0.1-0.1 0 0 0 0 0.1 0 0.1-0.1 0.1 0 0.1 0 0 0 0.1 0 0 0 0 0 0 0 0.1-0.1 0 0 0.1 0 0 0 0 0 0 0 0 0z"/>
			<path id="Layer" class="s2" d="m123.8 112.8q0.3-0.1 0.7-0.2c1.2 0 1.6 0.3 2.1 0.7q0.1 0 0.1 0.1 0.1 0 0.1 0c0 0 0 0.1 0 0.1q0.1 0 0.1 0 0 0.1 0 0.1 0.1 0 0.1 0 0 0.1 0 0.1 0 0 0.1 0 0 0.1 0 0.1 0 0 0.1 0.1 0 0 0 0 0 0 0 0.1 0.1 0 0.1 0 0 0.1 0 0.1 0 0 0.1 0.1 0 0 0 0.1 0 0 0.1 0.1 0 0 0 0 0 0 0 0.1 0 0 0.1 0.1 0 0 0 0.1 0 0 0 0 0 0 0 0.1 0 0 0 0.1 0 0 0 0 0.1 0.2 0.1 0.3 0 0 0 0.1 0 0.1 0 0.2v9.3q0 0.1 0 0.1h-6q0 0 0-0.1v-9.3q0-0.7 0.3-1.3 0.1 0 0.1 0 0-0.1 0-0.1 0.1-0.1 0.1-0.2 0 0 0 0 0.1 0 0.1-0.1 0 0 0.1-0.1 0 0 0 0 0 0 0-0.1 0.1 0 0.1 0 0-0.1 0.1-0.1 0.1-0.1 0.2-0.2 0 0 0 0 0.1 0 0.1-0.1 0.1 0 0.2-0.1 0 0 0.1 0 0-0.1 0-0.1 0 0 0.1 0 0 0 0.1-0.1 0 0 0.1 0 0 0 0 0 0 0 0.1 0 0 0 0-0.1 0.1 0 0.1 0 0 0 0 0 0.1 0 0.1 0z"/>
			<path id="Layer" class="s2" d="m140 112.8q0.4-0.1 0.7-0.2c1.3 0 1.7 0.3 2.2 0.7q0 0 0.1 0.1 0 0 0 0c0 0 0.1 0.1 0.1 0.1q0 0 0 0 0.1 0.1 0.1 0.1 0 0 0 0 0.1 0.1 0.1 0.1 0 0 0 0 0 0.1 0.1 0.1 0 0 0 0.1 0 0 0.1 0 0 0 0 0.1 0 0 0 0 0.1 0.1 0.1 0.1 0 0 0 0.1 0 0 0.1 0.1 0 0 0 0.1 0 0 0 0 0 0 0.1 0.1 0 0 0 0.1 0 0 0 0.1 0 0 0 0 0.1 0 0.1 0.1 0 0 0 0.1 0 0 0 0 0 0.2 0.1 0.3 0 0 0 0.1 0 0.1 0 0.2v9.3q0 0.1 0 0.1h-6q0 0 0-0.1v-9.3q0-0.7 0.3-1.3 0 0 0 0 0-0.1 0.1-0.1 0-0.1 0.1-0.2 0 0 0 0 0 0 0-0.1 0.1 0 0.1-0.1 0 0 0.1 0 0 0 0-0.1 0 0 0 0 0.1-0.1 0.1-0.1 0.1-0.1 0.2-0.2 0 0 0.1 0 0 0 0.1-0.1 0 0 0.1-0.1 0.1 0 0.1 0 0-0.1 0.1-0.1 0 0 0 0 0.1 0 0.1-0.1 0.1 0 0.1 0 0 0 0.1 0 0 0 0 0 0 0 0.1-0.1 0 0 0.1 0 0 0 0 0 0 0 0 0z"/>
			<path id="Layer" class="s2" d="m156.3 112.8q0.3-0.1 0.7-0.2c1.2 0 1.6 0.3 2.1 0.7q0.1 0 0.1 0.1 0.1 0 0.1 0c0 0 0 0.1 0 0.1q0.1 0 0.1 0 0 0.1 0 0.1 0.1 0 0.1 0 0 0.1 0 0.1 0.1 0 0.1 0 0 0.1 0 0.1 0 0 0.1 0.1 0 0 0 0 0 0 0 0.1 0.1 0 0.1 0 0 0.1 0 0.1 0 0 0.1 0.1 0 0 0 0.1 0 0 0.1 0.1 0 0 0 0 0 0 0 0.1 0 0 0.1 0.1 0 0 0 0.1 0 0 0 0 0 0 0 0.1 0 0 0 0.1 0 0 0.1 0 0 0.2 0 0.3 0 0 0 0.1 0 0.1 0 0.2v9.3q0 0.1 0 0.1h-6q0 0 0-0.1v-9.3q0-0.7 0.3-1.3 0.1 0 0.1 0 0-0.1 0-0.1 0.1-0.1 0.1-0.2 0 0 0 0 0.1 0 0.1-0.1 0 0 0.1-0.1 0 0 0 0 0 0 0-0.1 0.1 0 0.1 0 0-0.1 0.1-0.1 0.1-0.1 0.2-0.2 0 0 0 0 0.1 0 0.1-0.1 0.1 0 0.2-0.1 0 0 0.1 0 0-0.1 0-0.1 0.1 0 0.1 0 0 0 0.1-0.1 0 0 0.1 0 0 0 0 0 0 0 0.1 0 0 0 0-0.1 0.1 0 0.1 0 0 0 0 0 0.1 0 0.1 0z"/>
			<path id="Layer" class="s2" d="m123.8 64.2q0.3-0.1 0.7-0.2c1.2 0 1.6 0.3 2.1 0.7q0.1 0 0.1 0.1 0.1 0 0.1 0c0 0 0 0.1 0 0.1q0.1 0 0.1 0 0 0.1 0 0.1 0.1 0 0.1 0 0 0.1 0 0.1 0 0 0.1 0 0 0.1 0 0.1 0 0 0.1 0.1 0 0 0 0 0 0 0 0.1 0.1 0 0.1 0 0 0.1 0 0.1 0 0 0.1 0.1 0 0 0 0.1 0 0 0.1 0 0 0.1 0 0.1 0 0 0 0.1 0 0 0.1 0.1 0 0 0 0.1 0 0 0 0 0 0 0 0.1 0 0 0 0 0 0.1 0 0.1 0.1 0.2 0.1 0.3 0 0 0 0.1 0 0.1 0 0.2v9.3q0 0.1 0 0.1h-6q0 0 0-0.1v-9.3q0-0.7 0.3-1.3 0.1 0 0.1 0 0-0.1 0-0.1 0.1-0.1 0.1-0.2 0 0 0 0 0.1 0 0.1-0.1 0 0 0.1-0.1 0 0 0 0 0-0.1 0-0.1 0.1 0 0.1 0 0-0.1 0.1-0.1 0.1-0.1 0.2-0.2 0 0 0 0 0.1-0.1 0.1-0.1 0.1 0 0.2-0.1 0 0 0.1 0 0-0.1 0-0.1 0 0 0.1 0 0 0 0.1-0.1 0 0 0.1 0 0 0 0 0 0 0 0.1 0 0-0.1 0-0.1 0.1 0 0.1 0 0 0 0 0 0.1 0 0.1 0z"/>
			<path id="Layer" class="s2" d="m140 64.2q0.4-0.1 0.7-0.2c1.3 0 1.7 0.3 2.2 0.7q0 0 0.1 0.1 0 0 0 0c0 0 0.1 0.1 0.1 0.1q0 0 0 0 0.1 0.1 0.1 0.1 0 0 0 0 0.1 0.1 0.1 0.1 0 0 0 0 0 0.1 0.1 0.1 0 0 0 0.1 0 0 0.1 0 0 0 0 0.1 0 0 0 0 0.1 0.1 0.1 0.1 0 0 0 0.1 0 0 0.1 0.1 0 0 0 0 0 0.1 0 0.1 0 0 0.1 0.1 0 0 0 0.1 0 0 0 0.1 0 0 0 0 0.1 0 0.1 0.1 0 0 0 0 0 0.1 0 0.1 0 0.2 0.1 0.3 0 0 0 0.1 0 0.1 0 0.2v9.3q0 0.1 0 0.1h-6q0 0 0-0.1v-9.3q0-0.7 0.3-1.3 0 0 0 0 0-0.1 0.1-0.1 0-0.1 0.1-0.2 0 0 0 0 0 0 0-0.1 0.1 0 0.1-0.1 0 0 0.1 0 0-0.1 0-0.1 0 0 0 0 0.1-0.1 0.1-0.1 0.1-0.1 0.2-0.2 0 0 0.1 0 0-0.1 0.1-0.1 0 0 0.1-0.1 0.1 0 0.1 0 0-0.1 0.1-0.1 0 0 0 0 0.1 0 0.1-0.1 0.1 0 0.1 0 0 0 0.1 0 0 0 0 0 0-0.1 0.1-0.1 0 0 0.1 0 0 0 0 0 0 0 0 0z"/>
			<path id="Layer" class="s2" d="m156.3 64.2q0.3-0.1 0.7-0.2c1.2 0 1.6 0.3 2.1 0.7q0.1 0 0.1 0.1 0.1 0 0.1 0c0 0 0 0.1 0 0.1q0.1 0 0.1 0 0 0.1 0 0.1 0.1 0 0.1 0 0 0.1 0 0.1 0.1 0 0.1 0 0 0.1 0 0.1 0 0 0.1 0.1 0 0 0 0 0 0 0 0.1 0.1 0 0.1 0 0 0.1 0 0.1 0 0 0.1 0.1 0 0 0 0.1 0 0 0.1 0 0 0.1 0 0.1 0 0 0 0.1 0 0 0.1 0.1 0 0 0 0.1 0 0 0 0 0 0 0 0.1 0 0 0 0 0 0.1 0.1 0.1 0 0.2 0 0.3 0 0 0 0.1 0 0.1 0 0.2v9.3q0 0.1 0 0.1h-6q0 0 0-0.1v-9.3q0-0.7 0.3-1.3 0.1 0 0.1 0 0-0.1 0-0.1 0.1-0.1 0.1-0.2 0 0 0 0 0.1 0 0.1-0.1 0 0 0.1-0.1 0 0 0 0 0-0.1 0-0.1 0.1 0 0.1 0 0-0.1 0.1-0.1 0.1-0.1 0.2-0.2 0 0 0 0 0.1-0.1 0.1-0.1 0.1 0 0.2-0.1 0 0 0.1 0 0-0.1 0-0.1 0.1 0 0.1 0 0 0 0.1-0.1 0 0 0.1 0 0 0 0 0 0 0 0.1 0 0-0.1 0-0.1 0.1 0 0.1 0 0 0 0 0 0.1 0 0.1 0z"/>
			<path id="Layer" class="s2" d="m9.5 64.2q0.3-0.1 0.7-0.2c1.3 0 1.7 0.3 2.2 0.7q0 0 0.1 0.1 0 0 0 0c0 0 0.1 0.1 0.1 0.1q0 0 0 0 0 0.1 0.1 0.1 0 0 0 0 0 0.1 0.1 0.1 0 0 0 0 0 0.1 0.1 0.1 0 0 0 0.1 0 0 0 0 0.1 0 0.1 0.1 0 0 0 0 0 0.1 0.1 0.1 0 0 0 0.1 0 0 0.1 0.1 0 0 0 0 0 0.1 0 0.1 0 0 0.1 0.1 0 0 0 0.1 0 0 0 0.1 0 0 0 0 0 0 0.1 0.1 0 0 0 0 0 0.1 0 0.1 0 0.2 0 0.3 0 0 0 0.1 0.1 0.1 0.1 0.2v9.3q0 0.1 0 0.1h-6.1q0 0 0-0.1v-9.3q0-0.7 0.4-1.3 0 0 0 0 0-0.1 0.1-0.1 0-0.1 0.1-0.2 0 0 0 0 0 0 0-0.1 0.1 0 0.1-0.1 0 0 0 0 0.1-0.1 0.1-0.1 0 0 0 0 0.1-0.1 0.1-0.1 0.1-0.1 0.2-0.2 0 0 0 0 0.1-0.1 0.1-0.1 0.1 0 0.2-0.1 0 0 0.1 0 0-0.1 0-0.1 0.1 0 0.1 0 0.1 0 0.1-0.1 0.1 0 0.1 0 0 0 0 0 0.1 0 0.1 0 0-0.1 0-0.1 0.1 0 0.1 0 0.1 0 0.1 0 0 0 0 0z"/>
			<path id="Layer" class="s2" d="m12.5 87.6q0.4-0.1 1-0.2c1.8 0 2.4 0.5 3.1 1q0.1 0.1 0.2 0.1 0 0.1 0.1 0.1 0 0 0 0.1 0.1 0 0.1 0 0 0.1 0.1 0.1 0 0.1 0 0.1 0.1 0 0.1 0.1 0 0 0.1 0.1 0 0 0 0 0.1 0.1 0.1 0.1 0 0.1 0.1 0.1 0 0 0 0.1 0 0 0.1 0.1 0 0 0 0.1 0.1 0 0.1 0 0 0.1 0.1 0.2 0 0.1 0 0.1 0 0.1 0.1 0.1 0 0.1 0 0.1 0 0.1 0.1 0.2 0 0.1 0 0.1 0 0 0 0.1 0 0 0.1 0.1 0 0 0 0.1 0 0 0 0.1 0.1 0.2 0.1 0.4 0 0 0 0.1 0 0.2 0 0.4v13.6q0 0.1 0 0.1h-8.8q0-0.1 0-0.1v-13.6q0-1.1 0.5-2 0 0 0-0.1 0.1 0 0.1-0.1 0.1-0.1 0.2-0.2 0 0 0 0 0-0.1 0-0.1 0.1-0.1 0.2-0.2 0 0 0-0.1 0.1 0 0.1 0 0 0 0-0.1 0.1-0.1 0.2-0.1 0.1-0.1 0.3-0.3 0 0 0 0 0.1-0.1 0.2-0.1 0.1-0.1 0.2-0.2 0.1 0 0.1-0.1 0.1 0 0.1 0 0.1 0 0.1-0.1 0.1 0 0.1 0 0.1-0.1 0.2-0.1 0 0 0 0 0.1 0 0.1-0.1 0.1 0 0.1 0 0.1 0 0.1 0 0.1 0 0.1 0 0-0.1 0-0.1z"/>
			<path id="Layer" class="s2" d="m38.2 87.6q0.5-0.1 1-0.2c1.9 0 2.5 0.5 3.2 1q0.1 0.1 0.1 0.1 0.1 0.1 0.1 0.1 0.1 0 0.1 0.1 0 0 0.1 0 0 0.1 0 0.1 0.1 0.1 0.1 0.1 0 0 0.1 0.1 0 0 0 0.1 0.1 0 0.1 0 0 0.1 0.1 0.1 0 0.1 0 0.1 0 0 0.1 0.1 0 0 0 0.1 0.1 0 0.1 0.1 0 0 0 0 0.1 0.1 0.1 0.2 0.1 0.1 0.1 0.1 0 0.1 0 0.1 0.1 0.1 0.1 0.1 0 0.1 0 0.2 0.1 0.1 0.1 0.1 0 0 0 0.1 0 0 0 0.1 0 0 0.1 0.1 0 0 0 0.1 0 0.2 0 0.4 0.1 0 0.1 0.1 0 0.2 0 0.4v13.6q0 0.1 0 0.1h-8.8q0-0.1 0-0.1v-13.6q0-1.1 0.4-2 0.1 0 0.1-0.1 0 0 0.1-0.1 0-0.1 0.1-0.2 0 0 0 0 0.1-0.1 0.1-0.1 0.1-0.1 0.1-0.2 0.1 0 0.1-0.1 0 0 0 0 0.1 0 0.1-0.1 0.1-0.1 0.2-0.1 0.1-0.1 0.2-0.3 0 0 0.1 0 0.1-0.1 0.1-0.1 0.1-0.1 0.2-0.2 0.1 0 0.2-0.1 0 0 0.1 0 0 0 0.1-0.1 0 0 0.1 0 0.1-0.1 0.2-0.1 0 0 0 0 0.1 0 0.1-0.1 0 0 0 0 0.1 0 0.2 0 0 0 0 0 0.1-0.1 0.1-0.1z"/>
			<path id="Layer" class="s2" d="m12.5 137q0.4-0.2 1-0.2c1.8 0 2.4 0.4 3.1 0.9q0.1 0.1 0.2 0.2 0 0 0.1 0 0 0.1 0 0.1 0.1 0 0.1 0.1 0 0 0.1 0 0 0.1 0 0.1 0.1 0.1 0.1 0.1 0 0 0.1 0.1 0 0 0 0.1 0.1 0 0.1 0 0 0.1 0.1 0.1 0 0.1 0 0.1 0 0.1 0.1 0.1 0 0 0 0.1 0.1 0 0.1 0.1 0 0.1 0.1 0.2 0 0 0 0.1 0 0 0.1 0 0 0.1 0 0.1 0 0.1 0.1 0.2 0 0.1 0 0.1 0 0.1 0 0.1 0 0 0.1 0.1 0 0 0 0.1 0 0 0 0.1 0.1 0.2 0.1 0.4 0 0.1 0 0.1 0 0.2 0 0.4v13.6q0 0.1 0 0.1h-8.8q0 0 0-0.1v-13.6q0-1.1 0.5-1.9 0-0.1 0-0.1 0.1-0.1 0.1-0.2 0.1-0.1 0.2-0.2 0 0 0 0 0-0.1 0-0.1 0.1-0.1 0.2-0.2 0 0 0 0 0.1-0.1 0.1-0.1 0 0 0 0 0.1-0.1 0.2-0.2 0.1-0.1 0.3-0.2 0-0.1 0-0.1 0.1 0 0.2-0.1 0.1-0.1 0.2-0.1 0.1-0.1 0.1-0.1 0.1-0.1 0.1-0.1 0.1 0 0.1 0 0.1-0.1 0.1-0.1 0.1 0 0.2-0.1 0 0 0 0 0.1 0 0.1 0 0.1 0 0.1 0 0.1-0.1 0.1-0.1 0.1 0 0.1 0 0 0 0 0z"/>
			<path id="Layer" class="s2" d="m38.2 137q0.5-0.2 1-0.2c1.9 0 2.5 0.4 3.2 0.9q0.1 0.1 0.1 0.2 0.1 0 0.1 0 0.1 0.1 0.1 0.1 0 0 0.1 0.1 0 0 0 0 0.1 0.1 0.1 0.1 0 0.1 0.1 0.1 0 0 0 0.1 0.1 0 0.1 0.1 0 0 0.1 0 0 0.1 0 0.1 0 0.1 0.1 0.1 0 0.1 0 0.1 0.1 0 0.1 0.1 0 0 0 0.1 0.1 0.1 0.1 0.2 0.1 0 0.1 0.1 0 0 0 0 0.1 0.1 0.1 0.1 0 0.1 0 0.2 0.1 0.1 0.1 0.1 0 0.1 0 0.1 0 0 0 0.1 0 0 0.1 0.1 0 0 0 0.1 0 0.2 0 0.4 0.1 0.1 0.1 0.1 0 0.2 0 0.4v13.6q0 0.1 0 0.1h-8.8q0 0 0-0.1v-13.6q0-1.1 0.4-1.9 0.1-0.1 0.1-0.1 0-0.1 0.1-0.2 0-0.1 0.1-0.2 0 0 0 0 0.1-0.1 0.1-0.1 0.1-0.1 0.1-0.2 0.1 0 0.1 0 0-0.1 0-0.1 0.1 0 0.1 0 0.1-0.1 0.2-0.2 0.1-0.1 0.2-0.2 0-0.1 0.1-0.1 0.1 0 0.1-0.1 0.1-0.1 0.2-0.1 0.1-0.1 0.2-0.1 0-0.1 0.1-0.1 0 0 0.1 0 0-0.1 0.1-0.1 0.1 0 0.2-0.1 0 0 0 0 0.1 0 0.1 0 0 0 0 0 0.1-0.1 0.2-0.1 0 0 0 0 0.1 0 0.1 0z"/>
			<path id="Layer" class="s2" d="m126.6 87.2q0.5-0.2 1.1-0.2c1.8 0 2.4 0.4 3.1 0.9q0.1 0.1 0.2 0.2 0 0 0 0 0.1 0.1 0.1 0.1 0 0 0.1 0.1 0 0 0.1 0 0 0.1 0 0.1 0.1 0.1 0.1 0.1 0 0 0.1 0.1 0 0 0 0.1 0.1 0 0.1 0 0 0.1 0 0.1 0.1 0.1 0.1 0.1 0 0.1 0.1 0.1 0 0 0 0.1 0 0 0.1 0.1 0 0.1 0.1 0.2 0 0 0 0.1 0 0 0.1 0 0 0.1 0 0.1 0 0.1 0.1 0.2 0 0.1 0 0.1 0 0.1 0 0.1 0 0 0 0.1 0.1 0 0.1 0.1 0 0 0 0.1 0 0.2 0.1 0.4 0 0.1 0 0.1 0 0.2 0 0.4v13.6q0 0.1 0 0.1h-8.8q0 0 0-0.1v-13.6q0-1.1 0.5-1.9 0-0.1 0-0.1 0.1-0.1 0.1-0.2 0.1-0.1 0.1-0.2 0 0 0.1 0 0-0.1 0-0.1 0.1-0.1 0.2-0.2 0 0 0 0 0-0.1 0.1-0.1 0 0 0-0.1 0.1 0 0.2-0.1 0.1-0.1 0.2-0.2 0.1-0.1 0.1-0.1 0.1 0 0.2-0.1 0.1-0.1 0.2-0.1 0-0.1 0.1-0.1 0-0.1 0.1-0.1 0 0 0.1 0 0.1-0.1 0.1-0.1 0.1 0 0.2-0.1 0 0 0 0 0.1 0 0.1 0 0 0 0.1 0 0-0.1 0.1-0.1 0 0 0.1 0 0 0 0 0z"/>
			<path id="Layer" class="s2" d="m126.6 137q0.5-0.2 1.1-0.2c1.8 0 2.4 0.4 3.1 0.9q0.1 0.1 0.2 0.2 0 0 0 0 0.1 0.1 0.1 0.1 0 0 0.1 0.1 0 0 0.1 0 0 0.1 0 0.1 0.1 0.1 0.1 0.1 0 0 0.1 0.1 0 0 0 0.1 0.1 0 0.1 0 0 0.1 0 0.1 0.1 0.1 0.1 0.1 0 0.1 0.1 0.1 0 0 0 0.1 0 0 0.1 0.1 0 0.1 0.1 0.2 0 0 0 0.1 0 0 0.1 0 0 0.1 0 0.1 0 0.1 0.1 0.2 0 0.1 0 0.1 0 0.1 0 0.1 0 0 0 0.1 0.1 0 0.1 0.1 0 0 0 0.1 0 0.2 0.1 0.4 0 0.1 0 0.1 0 0.2 0 0.4v13.6q0 0.1 0 0.1h-8.8q0 0 0-0.1v-13.6q0-1.1 0.5-1.9 0-0.1 0-0.1 0.1-0.1 0.1-0.2 0.1-0.1 0.1-0.2 0 0 0.1 0 0-0.1 0-0.1 0.1-0.1 0.2-0.2 0 0 0 0 0-0.1 0.1-0.1 0 0 0 0 0.1-0.1 0.2-0.2 0.1-0.1 0.2-0.2 0.1-0.1 0.1-0.1 0.1 0 0.2-0.1 0.1-0.1 0.2-0.1 0-0.1 0.1-0.1 0-0.1 0.1-0.1 0 0 0.1 0 0.1-0.1 0.1-0.1 0.1 0 0.2-0.1 0 0 0 0 0.1 0 0.1 0 0 0 0.1 0 0-0.1 0.1-0.1 0 0 0.1 0 0 0 0 0z"/>
			<path id="Layer" class="s2" d="m152.6 87.2q0.4-0.2 1-0.2c1.8 0 2.4 0.4 3.1 0.9q0.1 0.1 0.2 0.2 0 0 0.1 0 0 0.1 0 0.1 0.1 0 0.1 0.1 0 0 0.1 0 0 0.1 0 0.1 0.1 0.1 0.1 0.1 0 0 0.1 0.1 0 0 0 0.1 0.1 0 0.1 0 0 0.1 0.1 0.1 0 0.1 0 0.1 0 0.1 0.1 0.1 0 0 0 0.1 0.1 0 0.1 0.1 0 0.1 0.1 0.2 0 0 0 0.1 0 0 0.1 0 0 0.1 0 0.1 0 0.1 0.1 0.2 0 0.1 0 0.1 0 0.1 0 0.1 0 0 0.1 0.1 0 0 0 0.1 0 0 0 0.1 0.1 0.2 0.1 0.4 0 0.1 0 0.1 0 0.2 0 0.4v13.6q0 0.1 0 0.1h-8.8q0 0 0-0.1v-13.6q0-1.1 0.5-1.9 0-0.1 0-0.1 0.1-0.1 0.1-0.2 0.1-0.1 0.2-0.2 0 0 0 0 0-0.1 0-0.1 0.1-0.1 0.2-0.2 0 0 0 0 0.1-0.1 0.1-0.1 0 0 0-0.1 0.1 0 0.2-0.1 0.1-0.1 0.3-0.2 0-0.1 0-0.1 0.1 0 0.2-0.1 0.1-0.1 0.2-0.1 0.1-0.1 0.1-0.1 0.1-0.1 0.1-0.1 0.1 0 0.1 0 0.1-0.1 0.1-0.1 0.1 0 0.2-0.1 0 0 0 0 0.1 0 0.1 0 0.1 0 0.1 0 0.1-0.1 0.1-0.1 0.1 0 0.1 0 0 0 0 0z"/>
			<path id="Layer" class="s2" d="m152.6 137q0.4-0.2 1-0.2c1.8 0 2.4 0.4 3.1 0.9q0.1 0.1 0.2 0.2 0 0 0.1 0 0 0.1 0 0.1 0.1 0 0.1 0.1 0 0 0.1 0 0 0.1 0 0.1 0.1 0.1 0.1 0.1 0 0 0.1 0.1 0 0 0 0.1 0.1 0 0.1 0 0 0.1 0.1 0.1 0 0.1 0 0.1 0 0.1 0.1 0.1 0 0 0 0.1 0.1 0 0.1 0.1 0 0.1 0.1 0.2 0 0 0 0.1 0 0 0.1 0 0 0.1 0 0.1 0 0.1 0.1 0.2 0 0.1 0 0.1 0 0.1 0 0.1 0 0 0.1 0.1 0 0 0 0.1 0 0 0 0.1 0.1 0.2 0.1 0.4 0 0.1 0 0.1 0 0.2 0 0.4v13.6q0 0.1 0 0.1h-8.8q0 0 0-0.1v-13.6q0-1.1 0.5-1.9 0-0.1 0-0.1 0.1-0.1 0.1-0.2 0.1-0.1 0.2-0.2 0 0 0 0 0-0.1 0-0.1 0.1-0.1 0.2-0.2 0 0 0 0 0.1-0.1 0.1-0.1 0 0 0 0 0.1-0.1 0.2-0.2 0.1-0.1 0.3-0.2 0-0.1 0-0.1 0.1 0 0.2-0.1 0.1-0.1 0.2-0.1 0.1-0.1 0.1-0.1 0.1-0.1 0.1-0.1 0.1 0 0.1 0 0.1-0.1 0.1-0.1 0.1 0 0.2-0.1 0 0 0 0 0.1 0 0.1 0 0.1 0 0.1 0 0.1-0.1 0.1-0.1 0.1 0 0.1 0 0 0 0 0z"/>
			<path id="Layer" class="s2" d="m25.8 64.2q0.3-0.1 0.7-0.2c1.2 0 1.6 0.3 2.1 0.7q0.1 0 0.1 0.1 0 0 0.1 0c0 0 0 0.1 0 0.1q0 0 0.1 0 0 0.1 0 0.1 0 0 0.1 0 0 0.1 0 0.1 0 0 0.1 0 0 0.1 0 0.1 0 0 0.1 0.1 0 0 0 0 0 0 0 0.1 0.1 0 0.1 0 0 0.1 0 0.1 0 0 0 0.1 0.1 0 0.1 0.1 0 0 0 0 0.1 0.1 0.1 0.1 0 0 0 0.1 0 0 0.1 0.1 0 0 0 0.1 0 0 0 0 0 0 0 0.1 0 0 0 0 0 0.1 0 0.1 0.1 0.2 0.1 0.3 0 0 0 0.1 0 0.1 0 0.2v9.3q0 0.1 0 0.1h-6q0 0 0-0.1v-9.3q0-0.7 0.3-1.3 0 0 0.1 0 0-0.1 0-0.1 0.1-0.1 0.1-0.2 0 0 0 0 0.1 0 0.1-0.1 0 0 0.1-0.1 0 0 0 0 0-0.1 0-0.1 0.1 0 0.1 0 0-0.1 0.1-0.1 0.1-0.1 0.2-0.2 0 0 0 0 0-0.1 0.1-0.1 0.1 0 0.2-0.1 0 0 0 0 0.1-0.1 0.1-0.1 0 0 0.1 0 0 0 0.1-0.1 0 0 0.1 0 0 0 0 0 0 0 0.1 0 0-0.1 0-0.1 0.1 0 0.1 0 0 0 0 0 0.1 0 0.1 0z"/>
			<path id="Layer" class="s2" d="m65.5 41.1q0.3-0.1 0.7-0.2c1.2 0 1.6 0.3 2.1 0.7q0.1 0 0.1 0.1 0.1 0 0.1 0c0 0 0 0.1 0 0.1q0.1 0 0.1 0 0 0 0 0.1 0.1 0 0.1 0 0 0 0 0.1 0 0 0.1 0 0 0.1 0 0.1 0 0 0.1 0 0 0.1 0 0.1 0 0 0 0.1 0.1 0 0.1 0 0 0.1 0 0.1 0 0 0.1 0 0 0.1 0 0.2 0 0 0.1 0 0 0.1 0 0.1 0 0 0 0.1 0 0 0.1 0.1 0 0 0 0.1 0 0 0 0 0 0 0 0.1 0 0 0 0 0 0.1 0.1 0.1 0 0.1 0 0.3 0 0 0 0.1 0 0.1 0 0.2v9.3q0 0.1 0 0.1h-6q0 0 0-0.1v-9.3q0-0.7 0.3-1.3 0.1 0 0.1-0.1 0 0 0-0.1 0.1 0 0.1-0.1 0 0 0 0 0.1-0.1 0.1-0.1 0 0 0.1-0.1 0 0 0-0.1 0 0 0 0 0.1 0 0.1 0 0-0.1 0.1-0.1 0.1-0.1 0.2-0.2 0 0 0 0 0.1-0.1 0.1-0.1 0.1-0.1 0.2-0.1 0 0 0.1-0.1 0 0 0 0 0 0 0.1 0 0-0.1 0.1-0.1 0 0 0.1 0 0 0 0 0 0 0 0.1-0.1 0 0 0 0 0.1 0 0.1 0 0 0 0 0 0.1 0 0.1 0z"/>
			<path id="Layer" class="s2" d="m81.7 41.1q0.4-0.1 0.7-0.2c1.3 0 1.7 0.3 2.2 0.7q0 0 0.1 0.1 0 0 0 0c0 0 0.1 0.1 0.1 0.1q0 0 0 0 0.1 0 0.1 0.1 0 0 0 0 0.1 0 0.1 0.1 0 0 0 0 0 0.1 0.1 0.1 0 0 0 0 0 0.1 0.1 0.1 0 0 0 0.1 0 0 0 0 0.1 0.1 0.1 0.1 0 0 0 0 0 0.1 0.1 0.2 0 0 0 0 0 0.1 0 0.1 0 0 0.1 0.1 0 0 0 0.1 0 0 0 0.1 0 0 0 0 0.1 0 0.1 0.1 0 0 0 0 0 0.1 0 0.1 0 0.1 0.1 0.3 0 0 0 0.1 0 0.1 0 0.2v9.3q0 0.1 0 0.1h-6q0 0 0-0.1v-9.3q0-0.7 0.3-1.3 0 0 0-0.1 0 0 0.1-0.1 0 0 0.1-0.1 0 0 0 0 0-0.1 0-0.1 0.1 0 0.1-0.1 0 0 0.1-0.1 0 0 0 0 0 0 0 0 0.1-0.1 0.1-0.1 0.1-0.1 0.2-0.2 0 0 0.1 0 0-0.1 0.1-0.1 0-0.1 0.1-0.1 0.1 0 0.1-0.1 0 0 0.1 0 0 0 0 0 0.1-0.1 0.1-0.1 0.1 0 0.1 0 0 0 0.1 0 0 0 0-0.1 0 0 0.1 0 0 0 0.1 0 0 0 0 0 0 0 0 0z"/>
			<path id="Layer" class="s2" d="m98 41.1q0.3-0.1 0.7-0.2c1.2 0 1.7 0.3 2.1 0.7q0.1 0 0.1 0.1 0.1 0 0.1 0c0 0 0 0.1 0 0.1q0.1 0 0.1 0 0 0 0 0.1 0.1 0 0.1 0 0 0 0 0.1 0.1 0 0.1 0 0 0.1 0 0.1 0 0 0.1 0 0 0.1 0 0.1 0 0 0 0.1 0.1 0 0.1 0 0 0.1 0 0.1 0 0 0.1 0 0 0.1 0 0.2 0 0 0.1 0 0 0.1 0 0.1 0 0 0 0.1 0 0 0.1 0.1 0 0 0 0.1 0 0 0 0 0 0 0 0.1 0 0 0 0 0 0.1 0.1 0.1 0 0.1 0 0.3 0 0 0 0.1 0 0.1 0 0.2v9.3q0 0.1 0 0.1h-6q0 0 0-0.1v-9.3q0-0.7 0.3-1.3 0.1 0 0.1-0.1 0 0 0-0.1 0.1 0 0.1-0.1 0 0 0 0 0.1-0.1 0.1-0.1 0 0 0.1-0.1 0 0 0-0.1 0 0 0 0 0.1 0 0.1 0 0-0.1 0.1-0.1 0.1-0.1 0.2-0.2 0 0 0 0 0.1-0.1 0.1-0.1 0.1-0.1 0.2-0.1 0 0 0.1-0.1 0 0 0 0 0.1 0 0.1 0 0-0.1 0.1-0.1 0 0 0.1 0 0 0 0 0 0 0 0.1-0.1 0 0 0 0 0.1 0 0.1 0 0 0 0 0 0.1 0 0.1 0z"/>
			<path id="Layer" class="s2" d="m42 64.2q0.4-0.1 0.7-0.2c1.3 0 1.7 0.3 2.2 0.7q0 0 0.1 0.1 0 0 0 0c0 0 0.1 0.1 0.1 0.1q0 0 0 0 0.1 0.1 0.1 0.1 0 0 0 0 0 0.1 0.1 0.1 0 0 0 0 0 0.1 0.1 0.1 0 0 0 0.1 0 0 0 0 0.1 0 0.1 0.1 0 0 0 0 0 0.1 0.1 0.1 0 0 0 0.1 0 0 0.1 0.1 0 0 0 0 0 0.1 0 0.1 0 0 0.1 0.1 0 0 0 0.1 0 0 0 0.1 0 0 0 0 0.1 0 0.1 0.1 0 0 0 0 0 0.1 0 0.1 0 0.2 0 0.3 0.1 0 0.1 0.1 0 0.1 0 0.2v9.3q0 0.1 0 0.1h-6.1q0 0 0-0.1v-9.3q0.1-0.7 0.4-1.3 0 0 0 0 0-0.1 0.1-0.1 0-0.1 0.1-0.2 0 0 0 0 0 0 0-0.1 0.1 0 0.1-0.1 0 0 0.1 0 0-0.1 0-0.1 0 0 0 0 0.1-0.1 0.1-0.1 0.1-0.1 0.2-0.2 0 0 0 0 0.1-0.1 0.2-0.1 0 0 0.1-0.1 0.1 0 0.1 0 0-0.1 0.1-0.1 0 0 0 0 0.1 0 0.1-0.1 0.1 0 0.1 0 0 0 0.1 0 0 0 0 0 0-0.1 0.1-0.1 0 0 0.1 0 0 0 0 0 0 0 0 0z"/>
			<path id="Layer" class="s1" d="m71.1 64.7h-9.3v11.6h9.3z"/>
			<path id="Layer" class="s2" d="m16.8 40.1h-9.4v11.6h9.4z"/>
			<path id="Layer" class="s2" d="m160.2 40.1h-9.3v11.6h9.3z"/>
			<path id="Layer" class="s2" d="m158.6 166.6h-9.3v11.6h9.3z"/>
			<path id="Layer" class="s0" d="m158.6 182.4h-9.3v11.6h9.3z"/>
			<path id="Layer" class="s0" d="m132.7 166.6h-9.4v11.6h9.4z"/>
			<path id="Layer" class="s2" d="m132.7 182.4h-9.4v11.6h9.4z"/>
			<path id="Layer" class="s2" d="m44.3 166.6h-9.3v11.6h9.3z"/>
			<path id="Layer" class="s0" d="m44.3 182.4h-9.3v11.6h9.3z"/>
			<path id="Layer" class="s0" d="m18.4 166.6h-9.3v11.6h9.3z"/>
			<path id="Layer" class="s2" d="m18.4 182.4h-9.3v11.6h9.3z"/>
			<path id="Layer" class="s1" d="m87.3 64.7h-9.3v11.6h9.3z"/>
			<path id="Layer" class="s1" d="m103.6 64.7h-9.3v11.6h9.3z"/>
			<path id="Layer" class="s1" d="m77.1 117.9q2.2-0.7 4.6-0.9c8.4 0 11.1 1.9 14.2 4.6q0.3 0.3 0.7 0.6 0.2 0.2 0.3 0.3 0.2 0.2 0.4 0.4 0.1 0.2 0.3 0.3 0.2 0.2 0.3 0.4h0.1q0.1 0.2 0.3 0.3 0.1 0.2 0.3 0.4 0.1 0.2 0.3 0.4 0.1 0.2 0.3 0.4 0.1 0.2 0.2 0.4 0.2 0.2 0.3 0.4 0.1 0.2 0.2 0.4h0.1q0.1 0.2 0.2 0.4 0.1 0.2 0.2 0.4 0.2 0.2 0.3 0.5 0.2 0.4 0.4 0.8 0.1 0.3 0.2 0.5 0.1 0.2 0.2 0.4 0.1 0.3 0.2 0.5 0.2 0.5 0.3 0.9 0.1 0.3 0.2 0.5 0 0.1 0.1 0.2 0 0.3 0.1 0.5 0.1 0.3 0.1 0.5 0.1 0.2 0.1 0.5 0.2 1 0.3 2 0.1 0.3 0.1 0.5 0.1 0.9 0.1 1.8v65.1q0 0.4 0 0.7h-39.6q0-0.3 0-0.7v-65.1c0-3.3 0.7-6.4 2.1-9.2q0.1-0.2 0.2-0.4 0.2-0.4 0.4-0.7 0.3-0.5 0.6-1 0.1-0.1 0.2-0.2 0.1-0.2 0.2-0.4 0.3-0.4 0.6-0.8 0.2-0.2 0.3-0.4 0.1-0.1 0.2-0.1 0.1-0.2 0.3-0.4 0.3-0.4 0.7-0.7 0.5-0.6 1.2-1.2 0.1 0 0.2-0.1 0.3-0.3 0.7-0.6 0.5-0.4 1-0.7 0.3-0.2 0.6-0.4 0.2-0.1 0.4-0.3 0.2-0.1 0.4-0.2 0.3-0.2 0.7-0.3 0.3-0.2 0.6-0.4 0.1 0 0.2-0.1 0.3-0.1 0.5-0.2 0.1 0 0.2-0.1 0.3-0.1 0.7-0.2 0.1-0.1 0.2-0.1 0.1 0 0.2-0.1z"/>
			<path id="Layer" class="s2" d="m78 121.1q1.9-0.7 3.9-0.9c7.3 0 9.6 1.9 12.3 4.4q0.3 0.3 0.6 0.6 0.1 0.2 0.3 0.3 0.1 0.2 0.3 0.3 0.1 0.2 0.3 0.4 0.1 0.1 0.2 0.3h0.1q0.1 0.2 0.2 0.4 0.1 0.1 0.3 0.3 0.1 0.2 0.2 0.4 0.2 0.2 0.3 0.4 0.1 0.2 0.2 0.3 0.2 0.2 0.3 0.4 0.1 0.2 0.2 0.4 0.1 0.2 0.2 0.4 0.1 0.2 0.2 0.4 0.1 0.2 0.2 0.4 0.2 0.5 0.4 0.9 0.1 0.2 0.2 0.4 0.1 0.2 0.1 0.4 0.1 0.3 0.2 0.5 0.1 0.4 0.3 0.9 0.1 0.2 0.1 0.4 0 0.2 0.1 0.3 0 0.2 0.1 0.4 0.1 0.3 0.1 0.5 0.1 0.2 0.1 0.5 0.2 0.9 0.3 1.9 0 0.3 0 0.5 0.1 0.9 0.1 1.8v62.6q0 0.4 0 0.7h-34.2q-0.1-0.3-0.1-0.7v-62.6c0-3.3 0.7-6.3 1.9-8.9q0.1-0.2 0.2-0.5 0.2-0.3 0.3-0.6 0.3-0.5 0.6-1 0-0.1 0.1-0.2 0.1-0.2 0.2-0.3 0.3-0.4 0.5-0.8 0.1-0.2 0.3-0.4 0 0 0.1-0.1 0.1-0.2 0.3-0.4 0.2-0.3 0.5-0.7 0.6-0.5 1.1-1.1 0.1 0 0.2-0.1 0.3-0.3 0.6-0.6 0.4-0.4 0.9-0.7 0.2-0.2 0.5-0.4 0.2-0.1 0.3-0.2 0.2-0.1 0.4-0.2 0.3-0.2 0.5-0.4 0.3-0.1 0.6-0.3 0.1 0 0.2-0.1 0.2 0 0.4-0.1 0.1-0.1 0.2-0.1 0.3-0.2 0.6-0.3 0.1 0 0.2-0.1 0.1 0 0.2 0z"/>
		</g>
	</g>
</svg>